<svg xmlns="http://www.w3.org/2000/svg" xmlns:xlink="http://www.w3.org/1999/xlink" width="1080" zoomAndPan="magnify" viewBox="0 0 810 809.999993" height="1080" preserveAspectRatio="xMidYMid meet" version="1.2"><defs><clipPath id="725321409e"><path d="M 0 106.890625 L 810 106.890625 L 810 151.105469 L 0 151.105469 Z M 0 106.890625 "/></clipPath><clipPath id="bc1ac77d93"><path d="M 0 0.890625 L 810 0.890625 L 810 45.105469 L 0 45.105469 Z M 0 0.890625 "/></clipPath><clipPath id="6f7e5e3aa4"><rect x="0" width="810" y="0" height="46"/></clipPath><clipPath id="707791b01c"><path d="M 766.097656 106.886719 L 810 106.886719 L 810 409.105469 L 766.097656 409.105469 Z M 766.097656 106.886719 "/></clipPath><clipPath id="0e66796b89"><path d="M 0.0976562 0.886719 L 44 0.886719 L 44 303.105469 L 0.0976562 303.105469 Z M 0.0976562 0.886719 "/></clipPath><clipPath id="9931c90d2d"><rect x="0" width="44" y="0" height="304"/></clipPath><clipPath id="b9e536d74e"><path d="M 0 106.886719 L 44.265625 106.886719 L 44.265625 409.105469 L 0 409.105469 Z M 0 106.886719 "/></clipPath><clipPath id="e72f86cfbd"><path d="M 0 0.886719 L 44.265625 0.886719 L 44.265625 303.105469 L 0 303.105469 Z M 0 0.886719 "/></clipPath><clipPath id="abbd29dccf"><rect x="0" width="45" y="0" height="304"/></clipPath><clipPath id="75d8030c4b"><path d="M 103.515625 206.898438 L 226.480469 206.898438 L 226.480469 409.105469 L 103.515625 409.105469 Z M 103.515625 206.898438 "/></clipPath><clipPath id="35d3c9176b"><path d="M 0.515625 0.898438 L 123.480469 0.898438 L 123.480469 203.105469 L 0.515625 203.105469 Z M 0.515625 0.898438 "/></clipPath><clipPath id="b59f8ca971"><rect x="0" width="124" y="0" height="204"/></clipPath><clipPath id="29e01ea6f0"><path d="M 170.027344 206.902344 L 349.03125 206.902344 L 349.03125 286.023438 L 170.027344 286.023438 Z M 170.027344 206.902344 "/></clipPath><clipPath id="255992cdb3"><path d="M 0.0273438 0.902344 L 179 0.902344 L 179 80.023438 L 0.0273438 80.023438 Z M 0.0273438 0.902344 "/></clipPath><clipPath id="42d7efb12a"><rect x="0" width="180" y="0" height="81"/></clipPath><clipPath id="22e767b901"><path d="M 266.480469 245.933594 L 388.527344 245.933594 L 388.527344 409.101562 L 266.480469 409.101562 Z M 266.480469 245.933594 "/></clipPath><clipPath id="c1e4027878"><path d="M 0.480469 1 L 122.527344 1 L 122.527344 164.101562 L 0.480469 164.101562 Z M 0.480469 1 "/></clipPath><clipPath id="e1885d6859"><rect x="0" width="123" y="0" height="165"/></clipPath><clipPath id="4b81446e6d"><path d="M 103.515625 409.105469 L 226.480469 409.105469 L 226.480469 611.308594 L 103.515625 611.308594 Z M 103.515625 409.105469 "/></clipPath><clipPath id="54cfb3094f"><path d="M 0.515625 0.105469 L 123.480469 0.105469 L 123.480469 202.308594 L 0.515625 202.308594 Z M 0.515625 0.105469 "/></clipPath><clipPath id="f6a2829172"><rect x="0" width="124" y="0" height="203"/></clipPath><clipPath id="f3655164fd"><path d="M 164.996094 532.191406 L 344.003906 532.191406 L 344.003906 611.3125 L 164.996094 611.3125 Z M 164.996094 532.191406 "/></clipPath><clipPath id="0fc12d8621"><path d="M 0.996094 0.191406 L 180 0.191406 L 180 79.3125 L 0.996094 79.3125 Z M 0.996094 0.191406 "/></clipPath><clipPath id="f26c978092"><rect x="0" width="181" y="0" height="80"/></clipPath><clipPath id="e2d451b6aa"><path d="M 266.480469 409.101562 L 388.527344 409.101562 L 388.527344 572.273438 L 266.480469 572.273438 Z M 266.480469 409.101562 "/></clipPath><clipPath id="47874d08f5"><path d="M 0.480469 0.101562 L 122.527344 0.101562 L 122.527344 163.273438 L 0.480469 163.273438 Z M 0.480469 0.101562 "/></clipPath><clipPath id="0398f09ee5"><rect x="0" width="123" y="0" height="164"/></clipPath><clipPath id="56ad1268c5"><path d="M 429.472656 206.898438 L 552.433594 206.898438 L 552.433594 409.105469 L 429.472656 409.105469 Z M 429.472656 206.898438 "/></clipPath><clipPath id="5dbe1360bc"><path d="M 0.472656 0.898438 L 123.433594 0.898438 L 123.433594 203.105469 L 0.472656 203.105469 Z M 0.472656 0.898438 "/></clipPath><clipPath id="d9964060b5"><rect x="0" width="124" y="0" height="204"/></clipPath><clipPath id="fcbfc08f77"><path d="M 495.980469 206.902344 L 674.988281 206.902344 L 674.988281 286.023438 L 495.980469 286.023438 Z M 495.980469 206.902344 "/></clipPath><clipPath id="8857187100"><path d="M 0.980469 0.902344 L 179.988281 0.902344 L 179.988281 80.023438 L 0.980469 80.023438 Z M 0.980469 0.902344 "/></clipPath><clipPath id="02155ffc45"><rect x="0" width="180" y="0" height="81"/></clipPath><clipPath id="3ecf5230f1"><path d="M 592.433594 245.933594 L 714.484375 245.933594 L 714.484375 409.101562 L 592.433594 409.101562 Z M 592.433594 245.933594 "/></clipPath><clipPath id="aff991bf3d"><path d="M 0.433594 1 L 122.484375 1 L 122.484375 164.101562 L 0.433594 164.101562 Z M 0.433594 1 "/></clipPath><clipPath id="979f368086"><rect x="0" width="123" y="0" height="165"/></clipPath><clipPath id="fd0961caa4"><path d="M 429.472656 409.105469 L 552.433594 409.105469 L 552.433594 611.308594 L 429.472656 611.308594 Z M 429.472656 409.105469 "/></clipPath><clipPath id="1a69d1a296"><path d="M 0.472656 0.105469 L 123.433594 0.105469 L 123.433594 202.308594 L 0.472656 202.308594 Z M 0.472656 0.105469 "/></clipPath><clipPath id="71270de664"><rect x="0" width="124" y="0" height="203"/></clipPath><clipPath id="de645d80f7"><path d="M 490.953125 532.191406 L 669.957031 532.191406 L 669.957031 611.3125 L 490.953125 611.3125 Z M 490.953125 532.191406 "/></clipPath><clipPath id="1773ecdcc0"><path d="M 0.953125 0.191406 L 179.957031 0.191406 L 179.957031 79.3125 L 0.953125 79.3125 Z M 0.953125 0.191406 "/></clipPath><clipPath id="38f27805d9"><rect x="0" width="180" y="0" height="80"/></clipPath><clipPath id="66bae50bcb"><path d="M 592.433594 409.101562 L 714.484375 409.101562 L 714.484375 572.273438 L 592.433594 572.273438 Z M 592.433594 409.101562 "/></clipPath><clipPath id="d366bfbb74"><path d="M 0.433594 0.101562 L 122.484375 0.101562 L 122.484375 163.273438 L 0.433594 163.273438 Z M 0.433594 0.101562 "/></clipPath><clipPath id="a34c700f5a"><rect x="0" width="123" y="0" height="164"/></clipPath><clipPath id="894ff571fc"><path d="M 0 666.816406 L 810 666.816406 L 810 711.332031 L 0 711.332031 Z M 0 666.816406 "/></clipPath><clipPath id="57ab7b6479"><path d="M 0 0.816406 L 810 0.816406 L 810 45.332031 L 0 45.332031 Z M 0 0.816406 "/></clipPath><clipPath id="84a98a8dac"><rect x="0" width="810" y="0" height="46"/></clipPath><clipPath id="9f7878e32a"><path d="M 0 409.105469 L 44.265625 409.105469 L 44.265625 711.328125 L 0 711.328125 Z M 0 409.105469 "/></clipPath><clipPath id="b8c8dbfa7f"><path d="M 0 0.105469 L 44.265625 0.105469 L 44.265625 302.328125 L 0 302.328125 Z M 0 0.105469 "/></clipPath><clipPath id="4f51fbf2fa"><rect x="0" width="45" y="0" height="303"/></clipPath><clipPath id="b71d3e95dd"><path d="M 765.730469 408.804688 L 810 408.804688 L 810 711.027344 L 765.730469 711.027344 Z M 765.730469 408.804688 "/></clipPath><clipPath id="e1d2164ca8"><path d="M 0.730469 0.804688 L 45 0.804688 L 45 303.027344 L 0.730469 303.027344 Z M 0.730469 0.804688 "/></clipPath><clipPath id="39f4f4bbc9"><rect x="0" width="45" y="0" height="304"/></clipPath></defs><g id="6813c0884b"><g clip-rule="nonzero" clip-path="url(#725321409e)"><g transform="matrix(1,0,0,1,0,106)"><g clip-path="url(#6f7e5e3aa4)"><g clip-rule="nonzero" clip-path="url(#bc1ac77d93)"><path style=" stroke:none;fill-rule:nonzero;fill:#b1ff75;fill-opacity:1;" d="M 0 0.890625 L 810.027344 0.890625 L 810.027344 45.105469 L 0 45.105469 Z M 0 0.890625 "/></g></g></g></g><g clip-rule="nonzero" clip-path="url(#707791b01c)"><g transform="matrix(1,0,0,1,766,106)"><g clip-path="url(#9931c90d2d)"><g clip-rule="nonzero" clip-path="url(#0e66796b89)"><path style=" stroke:none;fill-rule:nonzero;fill:#b1ff75;fill-opacity:1;" d="M 0.0976562 303.105469 L 0.0976562 0.929688 L 44 0.929688 L 44 303.105469 Z M 0.0976562 303.105469 "/></g></g></g></g><g clip-rule="nonzero" clip-path="url(#b9e536d74e)"><g transform="matrix(1,0,0,1,0,106)"><g clip-path="url(#abbd29dccf)"><g clip-rule="nonzero" clip-path="url(#e72f86cfbd)"><path style=" stroke:none;fill-rule:nonzero;fill:#b1ff75;fill-opacity:1;" d="M 0 303.105469 L 0 0.839844 L 44.265625 0.839844 L 44.265625 303.105469 Z M 0 303.105469 "/></g></g></g></g><g clip-rule="nonzero" clip-path="url(#75d8030c4b)"><g transform="matrix(1,0,0,1,103,206)"><g clip-path="url(#b59f8ca971)"><g clip-rule="nonzero" clip-path="url(#35d3c9176b)"><path style=" stroke:none;fill-rule:nonzero;fill:#b1ff75;fill-opacity:1;" d="M 0.515625 203.105469 L 0.515625 0.890625 L 123.480469 0.890625 L 123.480469 203.105469 Z M 0.515625 203.105469 "/></g></g></g></g><g clip-rule="nonzero" clip-path="url(#29e01ea6f0)"><g transform="matrix(1,0,0,1,170,206)"><g clip-path="url(#42d7efb12a)"><g clip-rule="nonzero" clip-path="url(#255992cdb3)"><path style=" stroke:none;fill-rule:nonzero;fill:#b1ff75;fill-opacity:1;" d="M 0.0273438 80.023438 L 0.0273438 0.902344 L 178.972656 0.902344 L 178.972656 80.023438 Z M 0.0273438 80.023438 "/></g></g></g></g><g clip-rule="nonzero" clip-path="url(#22e767b901)"><g transform="matrix(1,0,0,1,266,245)"><g clip-path="url(#e1885d6859)"><g clip-rule="nonzero" clip-path="url(#c1e4027878)"><path style=" stroke:none;fill-rule:nonzero;fill:#b1ff75;fill-opacity:1;" d="M 0.480469 164.101562 L 0.480469 1.054688 L 122.527344 1.054688 L 122.527344 164.101562 Z M 0.480469 164.101562 "/></g></g></g></g><g clip-rule="nonzero" clip-path="url(#4b81446e6d)"><g transform="matrix(1,0,0,1,103,409)"><g clip-path="url(#f6a2829172)"><g clip-rule="nonzero" clip-path="url(#54cfb3094f)"><path style=" stroke:none;fill-rule:nonzero;fill:#0e5b4a;fill-opacity:1;" d="M 0.515625 202.308594 L 0.515625 0.09375 L 123.480469 0.09375 L 123.480469 202.308594 Z M 0.515625 202.308594 "/></g></g></g></g><g clip-rule="nonzero" clip-path="url(#f3655164fd)"><g transform="matrix(1,0,0,1,164,532)"><g clip-path="url(#f26c978092)"><g clip-rule="nonzero" clip-path="url(#0fc12d8621)"><path style=" stroke:none;fill-rule:nonzero;fill:#0e5b4a;fill-opacity:1;" d="M 0.996094 79.3125 L 0.996094 0.191406 L 179.941406 0.191406 L 179.941406 79.3125 Z M 0.996094 79.3125 "/></g></g></g></g><g clip-rule="nonzero" clip-path="url(#e2d451b6aa)"><g transform="matrix(1,0,0,1,266,409)"><g clip-path="url(#0398f09ee5)"><g clip-rule="nonzero" clip-path="url(#47874d08f5)"><path style=" stroke:none;fill-rule:nonzero;fill:#0e5b4a;fill-opacity:1;" d="M 0.480469 163.273438 L 0.480469 0.222656 L 122.527344 0.222656 L 122.527344 163.273438 Z M 0.480469 163.273438 "/></g></g></g></g><g clip-rule="nonzero" clip-path="url(#56ad1268c5)"><g transform="matrix(1,0,0,1,429,206)"><g clip-path="url(#d9964060b5)"><g clip-rule="nonzero" clip-path="url(#5dbe1360bc)"><path style=" stroke:none;fill-rule:nonzero;fill:#b1ff75;fill-opacity:1;" d="M 0.472656 203.105469 L 0.472656 0.890625 L 123.433594 0.890625 L 123.433594 203.105469 Z M 0.472656 203.105469 "/></g></g></g></g><g clip-rule="nonzero" clip-path="url(#fcbfc08f77)"><g transform="matrix(1,0,0,1,495,206)"><g clip-path="url(#02155ffc45)"><g clip-rule="nonzero" clip-path="url(#8857187100)"><path style=" stroke:none;fill-rule:nonzero;fill:#b1ff75;fill-opacity:1;" d="M 0.980469 80.023438 L 0.980469 0.902344 L 179.929688 0.902344 L 179.929688 80.023438 Z M 0.980469 80.023438 "/></g></g></g></g><g clip-rule="nonzero" clip-path="url(#3ecf5230f1)"><g transform="matrix(1,0,0,1,592,245)"><g clip-path="url(#979f368086)"><g clip-rule="nonzero" clip-path="url(#aff991bf3d)"><path style=" stroke:none;fill-rule:nonzero;fill:#b1ff75;fill-opacity:1;" d="M 0.433594 164.101562 L 0.433594 1.054688 L 122.484375 1.054688 L 122.484375 164.101562 Z M 0.433594 164.101562 "/></g></g></g></g><g clip-rule="nonzero" clip-path="url(#fd0961caa4)"><g transform="matrix(1,0,0,1,429,409)"><g clip-path="url(#71270de664)"><g clip-rule="nonzero" clip-path="url(#1a69d1a296)"><path style=" stroke:none;fill-rule:nonzero;fill:#0e5b4a;fill-opacity:1;" d="M 0.472656 202.308594 L 0.472656 0.09375 L 123.433594 0.09375 L 123.433594 202.308594 Z M 0.472656 202.308594 "/></g></g></g></g><g clip-rule="nonzero" clip-path="url(#de645d80f7)"><g transform="matrix(1,0,0,1,490,532)"><g clip-path="url(#38f27805d9)"><g clip-rule="nonzero" clip-path="url(#1773ecdcc0)"><path style=" stroke:none;fill-rule:nonzero;fill:#0e5b4a;fill-opacity:1;" d="M 0.953125 79.3125 L 0.953125 0.191406 L 179.898438 0.191406 L 179.898438 79.3125 Z M 0.953125 79.3125 "/></g></g></g></g><g clip-rule="nonzero" clip-path="url(#66bae50bcb)"><g transform="matrix(1,0,0,1,592,409)"><g clip-path="url(#a34c700f5a)"><g clip-rule="nonzero" clip-path="url(#d366bfbb74)"><path style=" stroke:none;fill-rule:nonzero;fill:#0e5b4a;fill-opacity:1;" d="M 0.433594 163.273438 L 0.433594 0.222656 L 122.484375 0.222656 L 122.484375 163.273438 Z M 0.433594 163.273438 "/></g></g></g></g><g clip-rule="nonzero" clip-path="url(#894ff571fc)"><g transform="matrix(1,0,0,1,0,666)"><g clip-path="url(#84a98a8dac)"><g clip-rule="nonzero" clip-path="url(#57ab7b6479)"><path style=" stroke:none;fill-rule:nonzero;fill:#0e5b4a;fill-opacity:1;" d="M 0 0.816406 L 810 0.816406 L 810 45.335938 L 0 45.335938 Z M 0 0.816406 "/></g></g></g></g><g clip-rule="nonzero" clip-path="url(#9f7878e32a)"><g transform="matrix(1,0,0,1,0,409)"><g clip-path="url(#4f51fbf2fa)"><g clip-rule="nonzero" clip-path="url(#b8c8dbfa7f)"><path style=" stroke:none;fill-rule:nonzero;fill:#0e5b4a;fill-opacity:1;" d="M 0 302.328125 L 0 0.0625 L 44.265625 0.0625 L 44.265625 302.328125 Z M 0 302.328125 "/></g></g></g></g><g clip-rule="nonzero" clip-path="url(#b71d3e95dd)"><g transform="matrix(1,0,0,1,765,408)"><g clip-path="url(#39f4f4bbc9)"><g clip-rule="nonzero" clip-path="url(#e1d2164ca8)"><path style=" stroke:none;fill-rule:nonzero;fill:#0e5b4a;fill-opacity:1;" d="M 0.730469 303.027344 L 0.730469 0.761719 L 45 0.761719 L 45 303.027344 Z M 0.730469 303.027344 "/></g></g></g></g></g></svg>